<svg xmlns="http://www.w3.org/2000/svg" width="144.083" height="22.93" viewBox="0 0 144.083 22.93"><g transform="translate(0 0)"><path d="M673.333,289.31a2.255,2.255,0,1,1,2.257-2.256,2.255,2.255,0,0,1-2.257,2.256Zm0-4.274a2.021,2.021,0,1,0,1.993,2.047v-.029a2.023,2.023,0,0,0-1.993-2.019Zm.6,3.2-.616-1.014H672.9v1.014h-.28V285.8h.8a.736.736,0,0,1,.771.7v.016a.7.7,0,0,1-.565.682l.629,1.038Zm-.543-2.163H672.9v.888h.491a.449.449,0,1,0,.133-.888.441.441,0,0,0-.133,0Z" transform="translate(-531.507 -278.538)" fill="#fff"/><path d="M504.081,285c-.076,0-.1.027-.778.052s-2.025.054-4.7.054h-3.253c-2.678,0-4-.024-4.7-.054s-.7-.052-.779-.052c-.314,0-.314.209-.314.805V288.2c0,.13,0,.442.263.442s.336-.105.805-1.065c.306-.665.917-1.628,4.451-1.66.366.012.521.1.521.673v12.079c0,1.014,0,1.72-1.3,1.792-.545.052-.906.079-.906.442s.336.39.545.39c.491,0,2.6-.1,3.037-.1.859,0,2.21.1,3.067.1.209,0,.545,0,.545-.39s-.361-.415-.908-.442c-1.3-.076-1.3-.778-1.3-1.844V286.775c0-.675.083-.817.845-.847,3.236.086,3.822,1.009,4.114,1.652.469.96.521,1.065.805,1.065s.263-.312.263-.442v-2.391C504.39,285.216,504.39,285,504.081,285Z" transform="translate(-394.544 -278.69)" fill="#fff"/><path d="M396.271,297.167c-.245,0-.287.1-.754,1.012a3.748,3.748,0,0,1-3.9,2.21c-2.182,0-2.728-.287-2.728-2.131V293.79c0-.781.206-.781,1.452-.781,2.129,0,2.857.027,3.4,2.028.128.491.282.624.491.624.312,0,.312-.363.312-.521,0-.209-.079-1.117-.079-1.3,0-.573.184-3.248.184-3.609,0-.287-.133-.366-.287-.366s-.26.054-.39.39c-.467,1.376-.7,1.947-3.584,1.947-1.5,0-1.5-.206-1.5-1.038V287.4c0-1.3.1-1.473,1.4-1.473,3.683,0,4.311.982,4.624,1.662.469.96.52,1.065.805,1.065s.26-.312.26-.442v-2.391c0-.6,0-.805-.312-.805-.079,0-.1.027-.778.052s-2.028.054-4.7.054h-1.245c-2.21,0-3.325-.024-3.9-.054a5.355,5.355,0,0,1-.65-.066c-.182,0-.521,0-.521.366s.363.415.936.439c1.3.081,1.3.781,1.3,1.846v10.962c0,1.065,0,1.767-1.3,1.843-.545.052-.936.079-.936.442s.339.39.545.39.39-.027.808-.052,1.065-.052,2.128-.052h.312c.157,0,1.376.024,2.857.052s3.325.052,4.65.052c.754,0,1.012-.285,1.038-.781.079-.96.363-2.622.363-2.961C396.581,297.4,396.505,297.167,396.271,297.167Z" transform="translate(-314.815 -278.691)" fill="#fff"/><path d="M568.971,297.214c-.233,0-.285.1-.754,1.012a3.744,3.744,0,0,1-3.9,2.209c-2.183,0-2.727-.287-2.727-2.131v-4.468c0-.781.206-.781,1.452-.781,2.131,0,2.86.027,3.405,2.028.128.491.282.624.491.624.312,0,.312-.363.312-.52,0-.209-.076-1.117-.076-1.3,0-.573.182-3.248.182-3.609,0-.287-.13-.366-.285-.366s-.263.054-.391.391c-.469,1.376-.7,1.947-3.584,1.947-1.508,0-1.508-.206-1.508-1.038v-3.765c0-1.3.1-1.473,1.4-1.473,3.683,0,4.311.982,4.624,1.662.466.96.518,1.065.805,1.065s.26-.312.26-.442v-2.391c0-.6,0-.805-.314-.805-.076,0-.1.027-.778.052s-2.025.054-4.7.054h-1.247c-2.209,0-3.325-.024-3.9-.054a5.437,5.437,0,0,1-.65-.052c-.182,0-.52,0-.52.366s.366.415.938.439c1.3.081,1.3.781,1.3,1.846v10.962c0,1.065,0,1.767-1.3,1.844-.548.052-.938.079-.938.442s.339.39.545.39.393-.027.808-.052,1.065-.052,2.131-.052h.3c.157,0,1.376.024,2.86.052s3.325.052,4.647.052c.756,0,1.014-.285,1.038-.781.078-.96.366-2.622.366-2.961C569.282,297.447,569.2,297.214,568.971,297.214Z" transform="translate(-445.116 -278.738)" fill="#fff"/><path d="M449.627,290.319c-2.121-.874-3.658-1.537-3.658-3.42a2.638,2.638,0,0,1,2.889-2.512c2.209.02,2.675,1.473,3,2.512.265.822.371.982.636.982.371,0,.371-.214.371-.8,0-2.331,0-2.57-.319-2.757a10.274,10.274,0,0,0-3.471-.609c-3.363,0-5.222,2.119-5.222,4.557,0,2.811,2.094,3.842,4.242,4.8,1.907.874,3.71,1.883,3.71,3.948,0,2.148-2.089,2.875-3.191,2.875a4.644,4.644,0,0,1-4.2-3.9c-.052-.245-.086-.511-.324-.511-.319,0-.336.371-.336.476a20.175,20.175,0,0,0,.143,2.436c.071.66.177,1.193.469,1.407a7.187,7.187,0,0,0,3.852.85,5.35,5.35,0,0,0,5.7-5.4C453.893,292.254,451.112,290.955,449.627,290.319Z" transform="translate(-359.983 -277.725)" fill="#fff"/><path d="M185.881,283.72c-5.092,0-8.931,3.658-8.931,8.428a8.635,8.635,0,0,0,8.853,8.507,8.854,8.854,0,0,0,8.836-8.745C194.638,287.351,190.794,283.72,185.881,283.72Zm.13,16.2c-3.5,0-5.993-4.058-5.993-8.331,0-3.745,2.34-7.144,5.553-7.144,4.119,0,5.973,4.419,5.973,7.567,0,3.823-1.9,7.908-5.533,7.908Z" transform="translate(-158.688 -277.725)" fill="#fff"/><path d="M119.16,259.3a7.008,7.008,0,0,1-1.09.076c-.982.038-2.946.074-6.841.074h-.82c-3.714,0-5.074-.038-6.047-.074a9.1,9.1,0,0,1-1.053-.076c-.263,0-.751,0-.751.525s.564.564,1.35.638c1.878.115,1.878,1.127,1.878,2.666v15.546c0,1.247,0,2.111-1.6,2.21-.673.064-1.117.1-1.117.545s.415.479.67.479c.609,0,3.258-.128,3.8-.128,1.056,0,2.774.128,3.827.128.245,0,.673,0,.673-.479s-.447-.513-1.122-.545c-1.6-.1-1.6-.96-1.6-2.271v-5.767c0-1.065,0-1.488.609-1.655a25.34,25.34,0,0,1,3.233-.11c.938,0,3.341,0,3.867,2.028.074.189.324,1.161.412,1.426.064.189.209.619.6.6.452-.022.452-.449.452-.712l-.15-1.762c-.074-.864-.074-1.5-.074-1.839,0-.562.11-3.115.11-3.641,0-.376-.115-.619-.449-.638s-.525.3-.6.6c-.479,1.947-1.017,2.777-4.056,2.777-.562,0-2.79,0-3.356-.076-.491-.076-.6-.115-.6-2.14v-5.25c0-1.765.638-1.841,1.915-1.841,5.838,0,6.327.8,7.448,3.3.14.312.287.751.7.751s.415-.6.415-.714v-3.974C119.8,259.486,119.757,259.3,119.16,259.3Z" transform="translate(-102.558 -259.3)" fill="#fff"/><path d="M266.019,300.539c-.736-.108-1.093-.754-1.61-1.662l-2.519-4.468c-.6-1.09-.911-1.245-1.25-1.452.886-.182,3.562-.805,3.562-3.845,0-.911-.393-4.08-4.989-4.08-.781,0-4.235.105-4.935.105-.312,0-1.586-.105-1.846-.105-.857,0-.962,0-.962.366s.366.388.938.415c1.272.076,1.272.778,1.272,1.844v11.015c0,1.09,0,1.765-1.272,1.868-.545.027-.938.052-.938.417s.341.363.548.363c.467,0,2.57-.1,3.015-.1.1,0,2.622.1,3.118.1.206,0,.545.024.545-.339s-.366-.415-.938-.442c-1.3-.076-1.3-.778-1.3-1.868v-4.665c0-.442.054-.6.491-.6,1.171,0,1.3.1,1.873,1.227l3.145,5.922c.282.548.388.781.857.781h3.422c.182,0,.439-.044.439-.312S266.561,300.623,266.019,300.539Zm-8.261-7.817c-1.3,0-1.3-.052-1.3-.962V287.4c0-1.012.027-1.635,1.228-1.635a3.445,3.445,0,0,1,3.584,3.714c0,3.248-2.575,3.248-3.513,3.248Z" transform="translate(-214.913 -278.714)" fill="#fff"/><path d="M332.4,300.539c-.736-.108-1.09-.754-1.608-1.662l-2.519-4.468c-.6-1.09-.911-1.245-1.25-1.452.884-.182,3.56-.805,3.56-3.845,0-.911-.39-4.08-4.986-4.08-.781,0-4.235.105-4.937.105-.312,0-1.584-.105-1.844-.105-.857,0-.962,0-.962.366s.366.388.936.415c1.272.076,1.272.778,1.272,1.844v11.015c0,1.09,0,1.765-1.272,1.868-.545.027-.936.052-.936.417s.339.363.545.363c.469,0,2.573-.1,3.015-.1.1,0,2.624.1,3.118.1.206,0,.545.024.545-.339s-.363-.415-.936-.442c-1.3-.076-1.3-.778-1.3-1.868v-4.665c0-.442.054-.6.491-.6,1.171,0,1.3.1,1.873,1.227l3.145,5.922c.282.548.388.781.857.781h3.415c.182,0,.439-.044.439-.312S332.941,300.623,332.4,300.539Zm-8.259-7.817c-1.3,0-1.3-.052-1.3-.962V287.4c0-1.012.027-1.635,1.228-1.635a3.445,3.445,0,0,1,3.584,3.714c-.005,3.248-2.578,3.248-3.513,3.248Z" transform="translate(-264.996 -278.714)" fill="#fff"/><path d="M628.826,300.539c-.724-.108-1.09-.754-1.608-1.662l-2.519-4.468c-.6-1.09-.911-1.245-1.25-1.452.884-.182,3.56-.805,3.56-3.845,0-.911-.39-4.08-4.986-4.08-.781,0-4.235.105-4.937.105-.312,0-1.584-.105-1.844-.105-.857,0-.962,0-.962.366s.366.388.935.415c1.272.076,1.272.778,1.272,1.844v11.015c0,1.09,0,1.765-1.272,1.868-.545.027-.935.052-.935.417s.339.363.545.363c.469,0,2.573-.1,3.015-.1.1,0,2.624.1,3.118.1.206,0,.545.024.545-.339s-.363-.415-.935-.442c-1.3-.076-1.3-.778-1.3-1.868v-4.665c0-.442.054-.6.491-.6,1.171,0,1.3.1,1.873,1.227l3.138,5.9c.285.548.391.781.857.781h3.437c.182,0,.44-.044.44-.312S629.371,300.623,628.826,300.539Zm-8.259-7.817c-1.3,0-1.3-.052-1.3-.962V287.4c0-1.012.027-1.635,1.227-1.635a3.445,3.445,0,0,1,3.584,3.714c-.005,3.248-2.578,3.248-3.513,3.248Z" transform="translate(-488.652 -278.714)" fill="#fff"/></g></svg>