<svg xmlns="http://www.w3.org/2000/svg" width="102.342" height="23.273" viewBox="0 0 102.342 23.273"><g transform="translate(-205.051 -3669)"><path d="M103.315,9.061,103.02,12.6h-1.445a3.467,3.467,0,0,0-3.505,3.621v7.989H93.982V9.061h3.872l.088,1.891a4.408,4.408,0,0,1,3.987-1.891ZM74.974,24.208H70.883V16.2c0-1.677-.145-3.788-2.5-3.788-2.271,0-3.177,1.639-3.177,3.548v8.247h-4.09V9.061H64.9L64.991,11a5.135,5.135,0,0,1,4.56-2.306c4.122,0,5.423,2.943,5.423,6.006ZM59.329,20.67l-.286,3.446a10.631,10.631,0,0,1-2.906.357c-3.855,0-4.973-1.768-4.973-5.321V4.79h4.091V9.062h4.071L59.043,12.6H55.254v6.248c0,1.426.391,2.2,1.853,2.2a6.709,6.709,0,0,0,2.221-.372M49.82,9.061,49.5,12.6H48.392a3.42,3.42,0,0,0-3.446,3.621v7.989H40.854V9.061h3.874l.081,1.891A4.423,4.423,0,0,1,48.8,9.061ZM22.391,22.53a17.356,17.356,0,0,1-9.208,2.234C6.4,24.557,1.5,20.343,1.5,13.225,1.5,6.137,6.444,1.609,13.187,1.5a12.676,12.676,0,0,1,8.868,2.925L19.175,7.34a8.919,8.919,0,0,0-6.257-1.88c-4.244.2-6.8,3.282-6.857,7.522-.056,4.594,2.762,7.76,7.165,7.875a10.748,10.748,0,0,0,4.841-.8v-4.7H13.489l.309-3.851h8.593V22.53Zm69.764-4.456H80.939a3.7,3.7,0,0,0,3.736,3.153,5.034,5.034,0,0,0,4.22-1.871l2.67,2.036A8.179,8.179,0,0,1,84.8,24.579a7.649,7.649,0,0,1-7.979-7.944,7.6,7.6,0,0,1,7.808-7.943c4.858,0,7.529,2.943,7.529,8.167v1.215Zm-4.1-3.167a3.181,3.181,0,0,0-3.534-3.046,3.6,3.6,0,0,0-3.584,3.046ZM38.278,14.29v9.919H34.671l-.089-1.494a5.9,5.9,0,0,1-4.753,1.864c-2.785,0-5.417-1.373-5.472-4.572-.083-5.028,5.659-5.385,9.265-5.385h.721v-.2c0-1.663-1.1-2.561-3.172-2.561a5.974,5.974,0,0,0-4.041,1.614l-2.36-2.4a10.263,10.263,0,0,1,6.749-2.386c4.692,0,6.761,2.168,6.761,5.6M34.342,17.6h-.569c-1.937,0-5.339.1-5.326,2.125.018,2.853,5.895,1.947,5.895-1.495Zm65.782,4.844a1.656,1.656,0,1,1,1.661,1.705,1.647,1.647,0,0,1-1.661-1.705m1.661,2.044a2.038,2.038,0,1,0-2.069-2.044,2.034,2.034,0,0,0,2.069,2.044m-.431-1.881h.41l.618,1.018h.4l-.668-1.035a.611.611,0,0,0,.609-.648c0-.463-.274-.668-.83-.668H101v2.351h.355V22.61Zm0-.3V21.58h.485c.249,0,.513.054.513.345,0,.361-.27.382-.57.382Z" transform="translate(203.551 3667.5)" fill="#fff"/></g></svg>