<svg xmlns="http://www.w3.org/2000/svg" viewBox="0 0 260 77" width="260" height="77" fill="none">
  <path d="m66.548 52.486-.685-.577 6.516-.886 1.934.552.3-.838-.046-.012.053-.007c.105-.311.209-.622.306-.937l-2.48.337-9.722-2.777 13.016-.611c.067-.297.13-.597.189-.9l-13.656.64 8.128-3.1 5.759 1.183c.022-.148.049-.293.07-.44l-5.062-1.027.852-.325 4.294.732c.039-.293.075-.586.108-.881l-2.77-.47 2.913-1.11c.027-.406.049-.814.065-1.225l-.758-.27.765.024c.01-.3.016-.59.017-.886l-3.5-.11-2.1-.75 2.915-1.473 2.67.665a56.936 56.936 0 0 0-.044-.923l-1.418-.355 1.344-.68-.043-.474-1.958.99-6.928-1.731 6.256-2.928 2.043-.26c-.028-.145-.063-.29-.094-.434l-.637.08.595-.278c-.11-.5-.232-1-.361-1.49l-7.874-.06 7.132-2.416c-.095-.28-.193-.558-.294-.836l-9.537 3.232-12.048-.093 5.13-3.03 14.4-4.751-.211-.4-12.4 4.09 10.993-6.5c-.159-.248-.32-.495-.486-.741l-.377.224-17.384 8.313 14.3-12.971c-.2-.219-.4-.435-.6-.65l-.61.555-11.636 6.669 1.017-1.9 8.409-8.013c-.114-.1-.227-.192-.341-.288l-7.4 7.052 4.52-8.451.365-.545c-.244-.17-.485-.338-.73-.5l-6.078 9.145L57.66 5.213c-.26-.151-.517-.3-.78-.443l-.521 1.36-10.3 13.5 4.023-17.8c-.14-.045-.281-.092-.423-.135l-4.26 18.786-1.333 1.747L47.45 1.092c-.287-.07-.577-.138-.865-.2l-3.657 22.824-.4.523-.13-.353-.4-13.24L44.914.559c-.146-.026-.294-.05-.44-.073L41.956 9.2 41.679.14c-.15-.014-.3-.028-.447-.04l.322 10.488-1.8 6.234-3.618-9.64 1.8-7.185c-.306 0-.613.009-.918.02l-1.427 5.7L33.54.287l-.451.06 2.3 6.13-2.531 10.12-4.285-15.35-.428.117 4.5 16.1-1.036 4.14L27.4 1.578a44.71 44.71 0 0 0-.85.262l4.33 20.619-3.058-2.573-1.46-3.713L23.615 2.92c-.14.058-.278.115-.416.176L25.4 13.729 21.524 3.86c-.266.13-.531.263-.795.4l5.67 14.425-2.182-1.84-6.41-10.908c-.25.158-.5.319-.743.484l5.119 8.714-7.912-6.661c-.117.095-.236.188-.352.284l8.938 7.522 3.21 5.464-6.567-2.34-2.885-3.07-3.126-7.21c-.235.201-.468.405-.7.612l2.032 4.68-3.29-3.505c-.22.216-.439.434-.654.655l5.173 6.607-8.307-2.965c-.183.24-.362.483-.54.728l4.29 3.887-5.9-1.474c-.16.264-.318.529-.473.8l7.764 1.936 7.74 7.016-9.324-.073-7.032-7.323-.214.418 6.627 6.9-1.181-.01-6.822-3.828c-.11.277-.216.556-.32.835l5.31 2.983-6.268-.052c-.112.4-.216.8-.315 1.208l13.3 2.73.186.193-13.007-2.215-.606-.172c-.071.31-.138.62-.2.933l.61.105 16.425 4.69 1.4 1.457-14.522-.452-4.522-1.627c-.028.3-.053.609-.073.915l1.729.622-1.766-.054c-.015.293-.027.588-.034.885l4.5.14 4.006 1.442L.018 39.83c.005.148.009.3.015.445l9.39-1.19 2.546.918-11.6 3.824c.022.149.04.3.064.445l12.208-4.026 2.748.99-13.856 7.943c.147.5.3 1 .47 1.493l1.648-.558 11.444-.537-2.562 1.509-10.472-.27.157.447 9.6.248-7.542 4.456c.136.263.276.524.417.782l8.8-5.195 4.664.12-7.138 6.8-4.893.667c.18.275.362.548.547.819l3.25-.442-.66.628-1.846.865c.218.3.437.588.662.875l.43-.407 5.323-2.493.523-.071-4.994 4.53c.194.224.39.445.589.664l5.958-5.4.366-.05-4.723 6.189-.665.254c.225.23.454.459.685.686l9.93-3.783-.1.413-8.72 4.409.357.315 8.222-4.154-.571 2.279-3.4 5.117c.246.163.495.32.745.479l2.012-3.026-.923 3.683c.265.153.53.3.8.452l1.588-6.341 2.772-4.172 3.029-1.531-3.96 13.71.414.17 4.087-14.152.532-.27 4.376-1.665-8.678 16.218.415.164 8.9-16.623.115-.045 1.688 3.882-5.516 14.378c.293.068.584.132.878.193l5.033-13.126.123.6L32.8 76.276c.146.021.294.042.44.06l2.7-11.926.277 1.333-1.722 10.74c.3.029.59.057.886.078l1.342-8.378 1.762 8.49.45-.006L36.9 66.95l.2-1.227 4.687 10.792c.444-.04.887-.085 1.328-.14l-3.923-18.668 3.926 4.087.444 14.52c.149-.02.3-.04.442-.061l-.424-13.82 5.043 12.839c.285-.08.569-.163.853-.25l-1.042-2.653-1.984-7.1 7.688 8c.14-.063.28-.13.424-.2L46.2 64.36l-2.633-9.42 1.153-.158 3.018 3.855 8.107 13.8c.263-.133.524-.272.784-.415l-4.777-8.131 5.878 7.506c.256-.151.51-.3.763-.461l-10.022-12.8-2.1-3.58 3-.407 5.936 5.38 4.072 10.843c.126-.083.254-.166.378-.25l-3.732-9.943 7.636 6.92c.112-.1.225-.2.333-.3l-.022-.02-9.114-9.71-.713-1.9 5.335 1.92 8.923 5.012a30.9 30.9 0 0 0 .547-.71l-4.43-2.487 4.95 1.782c.18-.25.354-.5.527-.753l-10.15-3.648-5.1-2.865 4.927-.671 6.708.174 5.245 4.414.219-.394-4.752-4 6.614.17.18-.44-7.34-.188ZM14.342 14.555l1 1.067.207.476-1.207-1.543Zm-3.824 45 .145-.14.213-.028-.358.168Zm59.738-9.144-5.31.723-4.027-3.391 9.337 2.668Zm-10.518-3.925-.475-.136-1.917-1.613 5.684-2.873 5.749 1.179-9.041 3.443Zm-9.324 4.5 1.474-.56.637 1.7h-.095l-2.016-1.14Zm1.592 1.91-.95.13-.48-.512.786.02.644.363Zm-6.026-2.41.909-.46 1.44.81-1.381.524-.968-.874Zm.392.952-1.33-.48.516-.26.814.74Zm2.657.079.5.53-1.576-.041-.105-.04 1.18-.45Zm.378-1.091-1.567-.881 3.123-1.578.612 1.633-2.168.826Zm.8-5.738 4 1.143-2.23 1.127-.9.042-.87-2.312Zm.327 7.386-.383-.01-.408-.434.79.444Zm.868-4.2 5.37-.252-4.781 1.822-.59-1.57Zm1.66-.966 1.772-.9 2.445.7-4.217.2ZM56 45.422l.918-.462 1.3 1.1L56 45.422Zm6.33-3.7-5.351 2.705-4.3-3.62 1.584-.74 8.068 1.655Zm-7.9-2.857.288.009-.063.03-.224-.04Zm5.068-6.14 5.452 1.36-1.875.878-5.565-1.987 1.988-.251Zm-2.91-.077-.692-.248.978-.331 1.438.36-1.724.219Zm7.1 3.007 6.237 2.227-1.08.546-10.391-.324 5.234-2.45Zm3.505 3.608-2.628 1.327-8.378-1.425.489-.23 10.517.328Zm-3.96 2-.27.136-5.245-1.075 5.516.939Zm6.313 1.487-5.883-1.207.308-.156 6.326 1.077-.751.286Zm4.878-3.262 1.9.68-4.4 1.676-6.627-1.128 2.817-1.425 6.31.197Zm-2.72-.972-1.933-.06.73-.37 1.203.43Zm1.6-2.342-2.834 1.432-6.212-2.218 2.052-.961 6.994 1.747Zm-7.084-2.682-4.3-1.075 9.052-1.15-4.752 2.225Zm-1.264-4.163 9.994.077-2.668 1.248-11.548 1.466-2.312-.576 6.534-2.215Zm-2.7-.021-5.425 1.839-6.187-1.546.639-.377 10.973.084Zm-7.04 3.322.4.14-1.3.165.9-.305Zm-4.68-2.144 4.749 1.185-.733.25-4.016-1.435Zm.51-2.152-1.66-.012.344-.312 4.22-1.392-2.904 1.716Zm-1.481.875-.144.084-.357-.088.5.004Zm3.194-8.893-3.194 5.97 2.035-5.3 1.159-.67Zm-.908.01.1-.251 1.92-1.83-.713 1.334-1.307.748Zm13.6-.5-9.71 5.737-5.2 1.716.749-.678 14.16-6.774Zm-1.468-5.94L49.84 26.716l3.645-6.814 10.498-6.016Zm-6.477-2.433L54.537 17l-1.958 1.868 4.928-7.416Zm-11.7 9.222L55.78 7.607 51.4 19.042l-1.664 2.5L45 24.258l.807-3.583Zm2.664 2.1-4 3.812.4-1.744 3.6-2.068Zm-4.556.375 1.248-1.634-.688 3.039-.864.5.304-1.905Zm-1.135 1.488-.03.188-.04-.1.07-.088Zm-.2 1-.131.074-.013-.456.144.382Zm-.992-13.607.325 10.566-1.91-5.081 1.585-5.485Zm-8.465 7.155 1.575 5.643-1.737-.621-.906-.761 1.068-4.261Zm1.722 6.166.09.323-.331-.083-.672-.566.913.326Zm-1.22-.005-1.3-.324-.128-.618.542.195.887.747Zm-2.6-2.187.083.387-2.148-.761-.8-2.032 2.866 2.406Zm-1.455 1.176-.4-1.008 1.834.655-.168.67-1.266-.317Zm1.055 1.176-.231.924-.427-1.088.658.164Zm-2.31.065 1.524 2.593-.986-.008-.537-2.585Zm.277 3.513-.041-.044h.032l.009.044Zm-5.007-5.336 4.115 1.032.7 3.377-.686-.006-4.13-4.403Zm3.515 4.394-2.124-.016-3.923-5.011 1.738.435 4.309 4.592Zm1.413-4.076-.065-.017-.7-1.184-.011-.054.325.116.45 1.139Zm-.663-1.688-.213-.076-.207-1 .42 1.076Zm-2.961-4.391 1.7 1.429.468 2.256-2.168-3.685Zm1.527 4.35.829 1.412-4.782-1.195-2.3-2.45 6.253 2.233Zm-4.745.019-1.51-.377-2.04-2.6 1.13.4 2.42 2.577Zm-3.082-3.276-.918-.33-.528-1.212 1.446 1.542Zm-6.184.97-4.932-4.47 9.088 3.244.39.5.907 2.087-5.453-1.361Zm1.395 1.256 4.507 1.126 2.12 4.882-6.627-6.008Zm5.59 1.4.266.065 4.192 5.35-2.112-.014-2.346-5.401Zm-7.848 6.208.5.523-.937-.527.437.004Zm-9.8-.075 7.528.058 4.17 2.34-11.698-2.398Zm11.635 1.34-1.22-1.267 8.993.07 1.826 4.207-6.686-1.368-2.913-1.641ZM30.91 51.465l.04.1h-.1l.06-.1Zm-.038-2.311.025-.084.32.332-.144.216-.201-.464Zm.274 2.856 1.528 3.517-3.792.516.78-2.7.895-1.347.589.014Zm.4-1.314.634-.3 1.073 1.118.022.105-1.34-.034-.39-.89ZM26.6 56.353l-2.875.39.678-2.706 4.459-2.086.653.015-2.915 4.387Zm2.25-1.784-.444 1.539-.634.085 1.079-1.624Zm-9.153.693 3.8-3.45.545.015-.4 1.587-3.945 1.848Zm3.672-.74-.59 2.352-5.127.7.444-.582 5.273-2.47Zm.133-5.347-1.642 2.152-2.632-.07 2.079-1.98 2.195-.102Zm-4.874-.66 6.446-3.806.28.1-3.743 3.569-2.983.138Zm6.324 3.335 1.929.049-2.2 1.03.27-1.08Zm-.17-3.621.24-.316-.075.306-.164.01Zm-.187 1.39-1.9 1.729-.283-.007 1.672-2.194.642-.03-.131.503Zm-.388 1.55-.054.218-.18-.005.234-.213Zm-2.132.607h.14l-.466.422.326-.422Zm7.975-1.36-2.271 1.065-2.718-.071.329-1.313 1.172-1.063 3.229-.152.422.972-.163.563Zm-4.755-3.59-1.091 1.43-1.92.09 3.454-3.29-.443 1.77Zm-.314-3.091-1.225-.44 1.207-.41.527.549-.51.3Zm-2.563-.923-2.871-1.033 2.983-1.426 1.754 1.827-1.866.632Zm-1.562-4.2 1.35 1.406-3.246 1.552-2-.721 3.896-2.237Zm-.152-.8.62.019-.387.22-.233-.24Zm.549.57.915-.525 2.877.089.255.59-2.673 1.277-1.374-1.431Zm1.334-1.42.277-.091.09.025-.044.026-.323.04Zm1.277-.888-3.873-2.175 3.558.607.635 1.462-.32.106Zm-4.84-3.237-1.33-.228-.132-.073 1.463.3Zm-9.673-.75 6.265 1.068.957 1-7.222-2.067Zm8.07 2.308-1.076-1.11 1.044.178 3.367 1.89-3.334-.958Zm1.219 1.27 3.466.989-.873.289-1.407-.045-1.186-1.233ZM7.37 37.397l9.472.3-6.4.813-3.072-1.113Zm3.994 1.438 6.72-.853-4.743 1.565-1.977-.712Zm2.654.955 6.052-2 .467.487-4.137 2.375-2.382-.862ZM2.885 49.257l-.65.03 13.712-7.86 1.892.679-14.954 7.15Zm15.538-6.94 2.65.953c-6.365 2.158-11.974 4.059-15.937 5.4l13.287-6.352ZM6.7 49.078l15.712-5.325 1.58.57-7.255 4.286-10.037.47Zm7.509 2.054 2.79-1.648 3.634-.172-2.028 1.934-4.396-.114Zm-.63 7-1.814.247 7.013-6.682 2.752.07-1.59 2.087-2.965 2.69-3.396 1.588Zm-1.246 6.419 4.56-5.975 5.656-.77-.79 3.153-9.426 3.592Zm9.816-1.487.15-.6.376-.19-.526.79Zm1.023-1.541-.731.368.067-.268.8-.3-.136.2Zm.98-1.474-1.381.526.726-2.9 2.453-.333-1.798 2.707Zm3.508-1.335-2.083.793 1.543-2.322 1.022-.14-.482 1.669Zm4.348-1.657-3.831 1.458.443-1.535 4.426-.6.054.127-1.092.55Zm2.017-1.707-.431.059-1.462-3.367 1.239.033.673 3.243-.02.032Zm2.816-.735-1.232-1.283.632-1.184.887.023.436 2.078-.723.366Zm.819.083.006.028-.032.133-.4.054.426-.215Zm-2.376-1.7-.86-.894 1.32.034-.46.86Zm-.22.41-.7 1.3-.535-2.583 1.236 1.284Zm-.728 3.712.064-.033.08.386-.144-.353Zm1.052-3.374 1.038 1.08-.54.273-1.318.179.82-1.532Zm.258 6.393-.288-.664-.53-2.542 2.396-.913-1.578 4.119Zm.523 1.205-.02-.045.073-.19-.053.235Zm.235 3.17-.161-.775.207.479-.046.296Zm.306-1.921-.243-.56.862-3.812.14-.365-.76 4.737Zm5.05 11.628L37.367 64.1l.98-6.124L41.76 74.22Zm-3.721-22.024.2.005-.1.449-.1-.454Zm.986 4.7-.27-1.291 2.039-.277 2.257 5.758-4.026-4.19Zm1.043-3.414.174.442-1.326.5.065-.4 1.087-.542Zm-.906-.04.442-1.146.3.772-.742.375Zm2.569.863 1.087-.414.07.25v.006l-1.157.158Zm1.184.734.109 3.546-1.328-3.381 1.219-.165Zm-1.846-1.431-.207-.528 1.517-.765.2.719-1.51.574Zm-.37-.94-.16-.4.913.022-.752.378Zm2.544-1.411.144.053-.14.07-.004-.123Zm3.6 17.063-1.753-4.468.714.745 1.039 3.723Zm-1.292-4.626-.888-.924-1.161-2.96-.12-3.885 2.169 7.769Zm-2.223-9.608v-.012l-.011-.374.425-.163.349.446-.763.103Zm.144-2.327.17-.087.137.23-.2-.005-.107-.138Zm.563.718-.1-.127h.107l.059.1-.066.027Zm.436-1.718-.428-.154-.3-.513a13.07 13.07 0 0 1-2.106.76l.512.652.1.359-1.886-.048-.26-.658c-.551.076-1.106.116-1.662.12l-.11.486-.39-.01-.1-.484c-.31-.01-.617-.03-.92-.064l.11.523-.56-.014.285-.53c-.157-.02-.314-.04-.468-.065l-.311.582-1.991-.052-.326-.34-.2-.978a10.598 10.598 0 0 1-.5-.215l.122.593-.48-.5.277-.13a12.938 12.938 0 0 1-3.688-2.571l.222.512-1.818.084 1.16-1.053c-.2-.22-.39-.446-.572-.677l-1.981 1.8-.332.016.513-2.044.568-.746.629.226.174.18a12.96 12.96 0 0 1-1.5-2.807l-.368.217-.455-.474.65-.221c-.094-.278-.181-.56-.257-.847l-1.07.362-1.8-1.872 2.45-1.171a12.9 12.9 0 0 1 .106-2.388l-.08.01-.212-.49.065-.038.325-.108c.042-.225.09-.45.143-.671l-.651.374-.065.022-.437-1.008 1.256.213c.1-.354.208-.7.334-1.044l-2.143-.44-1.592-3.665 3.943 3.573c.059-.144.124-.284.19-.425l-4.3-3.9 2.264.016 2.428 3.1c.152-.28.317-.55.489-.815l-1.784-2.277 2.266.016.683.727c.149-.17.3-.335.46-.495l-.046-.223h.268a12.98 12.98 0 0 1 1.7-1.394l.485-1.932.084.022.288 1.372c.266-.153.537-.3.815-.436l-.148-.7 1.115.278a13.021 13.021 0 0 1 1.767-.543l-.052-.187.339.122c.3-.062.6-.11.9-.15l-1.388-.495-1.87-6.7 2.6-10.379 3.6 9.6-2.281 7.9c.158-.012.313-.024.47-.032l2.074-7.175 2.155 5.742.03.975-.617.807c.157.039.312.08.465.122l.173-.227.01.28c.467.139.926.304 1.374.495l.13-.812.823-.471-.353 1.557c.22.108.435.22.647.34l3.926-3.741-2.908 4.376c.244.168.48.346.712.529l3.575-5.378-1.843 4.8-1.4.67h-.213a13.058 13.058 0 0 1 2.285 2.408l.4-.237 4.7 1.679-3.6 1.22c.115.273.215.55.31.832l1.629-.551 4.326-.55 5.968 2.13-6.01 2.813-5.245-.164c.005.15.012.3.012.455 0 .373-.021.74-.052 1.108l1.6.327-.876.41-.727-.611c-.017.176-.04.35-.063.525l.348.293-.424.2c-.066.368-.144.733-.24 1.09l1.41-.66 4.314 3.63-1.176.595-5.29-1.511c-.126.275-.26.547-.4.813l.93 2.479-2.82.132c-.305.327-.627.638-.964.932l3.219-.152-2.555 1.292-.888-.946c-.114.094-.231.184-.347.276l.188.2-.26-.145c-.258.2-.527.386-.8.566l1.044.586-.8.4-.747-.678c-.134.079-.27.158-.4.232l.727.66-.753.389Zm.35 1.17-.076-.131.387.14-.31-.008Zm1.064 1.81-.49-.832 1.182-.448 1.52.547.417.374-2.63.359Zm3.395-1.25.676.018.319.34-.995-.358Zm10.62 10.61-4.22-3.823-.42-1.12L59.9 63.1Zm-5.428-5.784.492 1.31-5.021-4.55.828-.114.834.3 2.867 3.054Zm-.877-2.337.47 1.259-1.541-1.645 1.07.386Zm-.924-1.274.424-.06.09.244-.514-.184Zm.585-1.12.888.023-.682.093-.206-.116Zm1.55 1.889-1.073-.387-.1-.275 1.173.662Zm2.077-2.237-3.883-.1-.7-1.865 7.31-2.785.293-.013 4.453 3.747-7.473 1.016Zm5.525.142 2.86-.39.569.479-3.43-.09ZM90.397 18.879h4.084l13.232 14.294V18.879h3.7v19.794h-3.532L94.099 23.861v14.812h-3.7l-.002-19.794Zm47.811 11.299c0 6.372-4.058 8.986-10.51 8.986s-10.509-2.614-10.509-8.986v-11.3h3.866v11.027c0 3.268 1.171 5.935 6.644 5.935s6.644-2.668 6.644-5.935V18.879h3.867l-.002 11.299Zm26.572 1.442c-.38 2.206-1.959 7.542-11.053 7.542-6.262 0-11.19-3.484-11.19-10.7 0-5.772 3.621-10.075 11.489-10.075 8.849 0 10.156 5.747 10.455 6.809h-3.867c-.218-.682-1.743-3.486-6.371-3.486-5.472 0-7.759 3.076-7.759 7.188 0 4.548 3.294 6.944 7.541 6.944 4.518 0 6.508-2.7 6.888-4.221l3.867-.001Zm4.493-12.741h3.865v16.364h14.35v3.43h-18.215V18.879Zm22.271 0h17.752v3.322h-13.885v4.6h11.953v3.322h-11.953v5.228h14.212v3.322h-18.079V18.879Zm43.293 11.299c0 6.372-4.057 8.986-10.511 8.986-6.454 0-10.509-2.614-10.509-8.986v-11.3h3.865v11.027c0 3.268 1.172 5.935 6.644 5.935s6.645-2.668 6.645-5.935V18.879h3.866v11.299Zm21.181-5.283c-.628-1.769-2.233-3.293-6.944-3.293-2.612 0-5.254.652-5.254 2.478 0 .844.491 1.741 4.439 2.232l4.682.708c4.438.681 7.052 2.4 7.052 5.717 0 4.683-4.465 6.426-9.746 6.426-8.5 0-10.565-4.194-11.028-5.691l3.73-1.172c.708 1.444 2.179 3.54 7.407 3.54 3.158 0 5.772-1.035 5.772-2.75 0-1.28-1.471-2.124-4.3-2.477l-4.739-.654c-4.573-.625-7.133-2.613-7.133-5.635 0-5.936 7.706-5.936 9.229-5.936 8.523 0 9.991 3.948 10.483 5.308l-3.65 1.199ZM92.525 48.323h7.564c3.079 0 5.383.438 5.383 3.007 0 2.594-2.3 3.031-5.383 3.031h-7.564v-6.038ZM90.39 64.058h2.134v-7.807h6.933l5.673 7.807h2.643l-5.82-7.856c2.135-.1 5.552-1.163 5.552-4.848 0-4.316-4.122-4.922-6.934-4.922H90.391v17.626Zm22.522-17.625h15.71v1.892h-13.576v5.624h11.346v1.89h-11.346v6.328h13.868v1.892h-16l-.002-17.626Zm20.001 12.582c1.017 1.357 2.715 3.589 8 3.589 2.715 0 6.425-.776 6.425-3.516 0-5.357-15.371-.655-15.371-7.806 0-3.759 3.467-5.286 8.267-5.286 4.655 0 7.517 1.916 8.728 3.614l-1.552 1.259c-.727-.824-2.424-3.077-7.225-3.077-3.539 0-6.038.919-6.038 3.15 0 5.334 15.371.242 15.371 8.146 0 2.959-2.86 5.407-8.849 5.407-5.769 0-7.9-2.4-9.406-4.073l1.65-1.407Zm20.972-12.582h15.71v1.892h-13.578v5.624h11.347v1.89h-11.347v6.328h13.869v1.892h-16l-.001-17.626Zm23.589 11.153 4.727-9.48 4.727 9.48h-9.454Zm-5.649 6.472h2.377l2.3-4.582h11.371l2.278 4.582h2.4l-9.04-17.625h-2.619l-9.067 17.625Zm26.303-15.735h7.565c3.077 0 5.383.438 5.383 3.007 0 2.594-2.305 3.031-5.383 3.031h-7.565v-6.038Zm-2.127 15.736h2.132v-7.807h6.934l5.673 7.807h2.645l-5.821-7.856c2.135-.1 5.552-1.163 5.552-4.848 0-4.316-4.121-4.922-6.934-4.922h-10.181v17.626Zm40.602-4.68c-1.891 3.661-5.163 5.116-9.454 5.116-6.838 0-10.062-4.1-10.062-9.213 0-6.062 4.1-9.287 10.036-9.287 3.784 0 7.638 1.456 9.215 5.043l-1.844.85c-1.236-2.886-3.975-4.1-7.345-4.1-5.044 0-7.88 2.739-7.88 7.758 0 4.048 2.74 7.054 8.074 7.054a7.744 7.744 0 0 0 7.368-4.146l1.892.925Zm4.268-12.946h2.133V53.9h13.869v-7.467h2.132v17.625h-2.132V55.79h-13.869v8.268h-2.133V46.433Z" fill="#fff"/>
</svg>