<svg xmlns="http://www.w3.org/2000/svg" x="0px"	 y="0px" width="107px" height="17px" viewBox="0 0 107 17">
<path fill="#FFFFFF" d="M17.4,6.2l-5.8-0.5L9.4,0.3C9.3,0,9-0.1,8.8,0c-0.1,0-0.2,0.1-0.2,0.2L6.2,5.6L0.4,6.2C0.2,6.2,0,6.4,0,6.7
	C0,6.8,0.1,6.9,0.2,7l4.4,3.8l-1.3,5.7C3.2,16.7,3.3,17,3.6,17c0.1,0,0.2,0,0.3-0.1l5-3l5,3c0.2,0.1,0.5,0.1,0.6-0.2
	c0.1-0.1,0.1-0.2,0.1-0.3l-1.3-5.7L17.7,7c0.2-0.2,0.2-0.5,0-0.7C17.7,6.2,17.6,6.2,17.4,6.2z"/>
<path fill="#FFFFFF" d="M39.3,6.2l-5.8-0.5l-2.3-5.3C31.1,0,30.8-0.1,30.6,0c-0.1,0-0.2,0.1-0.2,0.2L28,5.6l-5.8,0.5
	c-0.3,0-0.4,0.3-0.4,0.5c0,0.1,0.1,0.2,0.2,0.3l4.4,3.8l-1.3,5.7C25,16.7,25.2,17,25.4,17c0.1,0,0.2,0,0.3-0.1l5-3l5,3
	c0.2,0.1,0.5,0.1,0.6-0.2c0.1-0.1,0.1-0.2,0.1-0.3l-1.3-5.7L39.5,7c0.2-0.2,0.2-0.5,0-0.7C39.5,6.2,39.4,6.2,39.3,6.2z"/>
<path fill="#FFFFFF" d="M61.1,6.2l-5.8-0.5L53,0.3C52.9,0,52.6-0.1,52.4,0c-0.1,0-0.2,0.1-0.2,0.2l-2.3,5.3l-5.8,0.5
	c-0.3,0-0.4,0.3-0.4,0.5c0,0.1,0.1,0.2,0.2,0.3l4.4,3.8l-1.3,5.7C46.8,16.7,47,17,47.2,17c0.1,0,0.2,0,0.3-0.1l5-3l5,3
	c0.2,0.1,0.5,0.1,0.6-0.2c0.1-0.1,0.1-0.2,0.1-0.3L57,10.8L61.3,7c0.2-0.2,0.2-0.5,0-0.7C61.3,6.2,61.2,6.2,61.1,6.2z"/>
<path fill="#FFFFFF" d="M82.9,6.2l-5.8-0.5l-2.3-5.3C74.7,0,74.4-0.1,74.2,0c-0.1,0-0.2,0.1-0.2,0.2l-2.3,5.3l-5.8,0.5
	c-0.3,0-0.4,0.3-0.4,0.5c0,0.1,0.1,0.2,0.2,0.3l4.4,3.8l-1.3,5.7C68.6,16.7,68.8,17,69,17c0.1,0,0.2,0,0.3-0.1l5-3l5,3
	c0.2,0.1,0.5,0.1,0.6-0.2c0.1-0.1,0.1-0.2,0.1-0.3l-1.3-5.7L83.2,7c0.2-0.2,0.2-0.5,0-0.7C83.1,6.2,83,6.2,82.9,6.2z"/>
<path fill="#FFFFFF" d="M106.1,6.2l-5.8-0.5L98,0.3C97.9,0,97.6-0.1,97.4,0c-0.1,0-0.2,0.1-0.2,0.2l-2.3,5.3L89,6.2
	c-0.3,0-0.4,0.3-0.4,0.5c0,0.1,0.1,0.2,0.2,0.3l4.4,3.8l-1.3,5.7C91.8,16.7,92,17,92.2,17c0.1,0,0.2,0,0.3-0.1l5-3l5,3
	c0.2,0.1,0.5,0.1,0.6-0.2c0.1-0.1,0.1-0.2,0.1-0.3l-1.3-5.7l4.4-3.8c0.2-0.2,0.2-0.5,0-0.7C106.3,6.2,106.2,6.2,106.1,6.2z"/>
</svg>
